<svg width="420" height="840" viewBox="0 0 420 840" fill="none" xmlns="http://www.w3.org/2000/svg">
  <rect width="420" height="840" rx="48" fill="#17232B"/>
  <rect x="24" y="24" width="372" height="792" rx="34" fill="#F8F7F1"/>
  <rect x="48" y="64" width="132" height="18" rx="9" fill="#17232B"/>
  <rect x="48" y="112" width="324" height="96" rx="18" fill="#FFE12B"/>
  <rect x="72" y="138" width="178" height="18" rx="9" fill="#17232B"/>
  <rect x="72" y="169" width="248" height="12" rx="6" fill="#6B6F72"/>
  <rect x="48" y="240" width="144" height="118" rx="18" fill="#FFFFFF" stroke="#E3E0D4"/>
  <rect x="228" y="240" width="144" height="118" rx="18" fill="#FFFFFF" stroke="#E3E0D4"/>
  <rect x="48" y="384" width="324" height="72" rx="16" fill="#FFFFFF" stroke="#E3E0D4"/>
  <rect x="48" y="480" width="324" height="72" rx="16" fill="#FFFFFF" stroke="#E3E0D4"/>
  <rect x="48" y="576" width="324" height="72" rx="16" fill="#FFFFFF" stroke="#E3E0D4"/>
  <rect x="72" y="411" width="136" height="14" rx="7" fill="#17232B"/>
  <rect x="72" y="507" width="168" height="14" rx="7" fill="#17232B"/>
  <rect x="72" y="603" width="120" height="14" rx="7" fill="#17232B"/>
  <rect x="48" y="700" width="324" height="64" rx="20" fill="#17232B"/>
  <rect x="136" y="724" width="148" height="16" rx="8" fill="#FFE12B"/>
</svg>
