<svg width="420" height="840" viewBox="0 0 420 840" fill="none" xmlns="http://www.w3.org/2000/svg">
  <rect width="420" height="840" rx="48" fill="#17232B"/>
  <rect x="24" y="24" width="372" height="792" rx="34" fill="#F8F7F1"/>
  <rect x="48" y="64" width="170" height="18" rx="9" fill="#17232B"/>
  <rect x="48" y="112" width="324" height="142" rx="22" fill="#FFE12B"/>
  <rect x="74" y="145" width="112" height="14" rx="7" fill="#17232B"/>
  <rect x="74" y="177" width="224" height="18" rx="9" fill="#17232B"/>
  <rect x="74" y="212" width="160" height="12" rx="6" fill="#6B6F72"/>
  <rect x="48" y="296" width="324" height="332" rx="22" fill="#FFFFFF" stroke="#E3E0D4"/>
  <rect x="76" y="330" width="110" height="14" rx="7" fill="#17232B"/>
  <rect x="76" y="376" width="268" height="10" rx="5" fill="#D8D5C9"/>
  <rect x="76" y="424" width="268" height="10" rx="5" fill="#D8D5C9"/>
  <rect x="76" y="472" width="268" height="10" rx="5" fill="#D8D5C9"/>
  <rect x="76" y="520" width="268" height="10" rx="5" fill="#D8D5C9"/>
  <rect x="76" y="570" width="122" height="18" rx="9" fill="#17232B"/>
  <rect x="240" y="570" width="104" height="18" rx="9" fill="#17232B"/>
  <rect x="48" y="684" width="324" height="80" rx="22" fill="#17232B"/>
  <rect x="120" y="716" width="180" height="16" rx="8" fill="#FFE12B"/>
</svg>
