<svg width="420" height="840" viewBox="0 0 420 840" fill="none" xmlns="http://www.w3.org/2000/svg">
  <rect width="420" height="840" rx="48" fill="#17232B"/>
  <rect x="24" y="24" width="372" height="792" rx="34" fill="#F8F7F1"/>
  <rect x="48" y="64" width="220" height="18" rx="9" fill="#17232B"/>
  <rect x="48" y="116" width="324" height="70" rx="18" fill="#FFFFFF" stroke="#E3E0D4"/>
  <rect x="72" y="141" width="94" height="18" rx="9" fill="#17232B"/>
  <rect x="48" y="218" width="324" height="118" rx="22" fill="#17232B"/>
  <rect x="78" y="253" width="96" height="18" rx="9" fill="#FFE12B"/>
  <rect x="78" y="286" width="216" height="12" rx="6" fill="#F8F7F1" opacity="0.75"/>
  <g fill="#FFFFFF" stroke="#E3E0D4">
    <rect x="48" y="376" width="92" height="72" rx="18"/>
    <rect x="164" y="376" width="92" height="72" rx="18"/>
    <rect x="280" y="376" width="92" height="72" rx="18"/>
    <rect x="48" y="468" width="92" height="72" rx="18"/>
    <rect x="164" y="468" width="92" height="72" rx="18"/>
    <rect x="280" y="468" width="92" height="72" rx="18"/>
    <rect x="48" y="560" width="92" height="72" rx="18"/>
    <rect x="164" y="560" width="92" height="72" rx="18"/>
    <rect x="280" y="560" width="92" height="72" rx="18"/>
  </g>
  <g fill="#17232B">
    <circle cx="94" cy="412" r="8"/><circle cx="210" cy="412" r="8"/><circle cx="326" cy="412" r="8"/>
    <circle cx="94" cy="504" r="8"/><circle cx="210" cy="504" r="8"/><circle cx="326" cy="504" r="8"/>
    <circle cx="94" cy="596" r="8"/><circle cx="210" cy="596" r="8"/><circle cx="326" cy="596" r="8"/>
  </g>
  <rect x="48" y="690" width="324" height="74" rx="22" fill="#FFE12B"/>
  <rect x="134" y="719" width="152" height="16" rx="8" fill="#17232B"/>
</svg>
